# xmcd
#
# Track frame offsets:
#	150
#	14730
#	29084
#	45896
#	66858
#	80245
#	94466
#	113697
#	132880
#	151051
#
# Disc length: 2246 seconds
#
# Revision: 1
# Processed by: cddbd v1.5.2PL0 Copyright (c) Steve Scherf et al.
# Submitted via: audiograbber 1.83.01
#
DISCID=8208c40a
DTITLE=Greg McCool - Special Unspoken Request
DYEAR=1994
DGENRE=Christian
TTITLE0=Special Unspoken Request
TTITLE1=Under The Blood
TTITLE2=His Presence Surrounds Me
TTITLE3=Scars
TTITLE4=The Winning Side
TTITLE5=Brand New Shoes
TTITLE6=A Fathers Kind Of Love
TTITLE7=Where You Gonna Run
TTITLE8=Out Of Time
TTITLE9=Talkin About Love
EXTD=
EXTT0=
EXTT1=
EXTT2=
EXTT3=
EXTT4=
EXTT5=
EXTT6=
EXTT7=
EXTT8=
EXTT9=
PLAYORDER=
